<?xml version="1.0" standalone="no"?>
<!DOCTYPE svg PUBLIC "-//W3C//DTD SVG 20010904//EN"
 "http://www.w3.org/TR/2001/REC-SVG-20010904/DTD/svg10.dtd">
<svg version="1.0" xmlns="http://www.w3.org/2000/svg"
 width="608.000000pt" height="608.000000pt" viewBox="0 0 608.000000 608.000000"
 preserveAspectRatio="xMidYMid meet">
<metadata>
Created by potrace 1.14, written by Peter Selinger 2001-2017
</metadata>
<g transform="translate(0.000000,608.000000) scale(0.100000,-0.100000)"
fill="#000000" stroke="none">
<path d="M3098 6075 c-2 -2 -26 -7 -53 -11 -27 -3 -61 -11 -75 -16 -14 -5 -27
-9 -30 -9 -18 2 -217 -77 -250 -100 -14 -9 -28 -16 -32 -15 -9 1 -243 -154
-287 -191 -166 -139 -272 -251 -359 -379 -158 -231 -228 -330 -244 -348 -10
-11 -18 -26 -18 -33 0 -8 -7 -16 -15 -19 -8 -4 -15 -10 -15 -15 0 -7 -197
-297 -227 -334 -5 -5 -33 -47 -63 -92 -30 -46 -58 -83 -62 -83 -5 0 -8 -6 -8
-13 0 -7 -8 -22 -17 -33 -10 -11 -22 -27 -28 -36 -15 -24 -44 -66 -107 -155
-32 -45 -58 -86 -58 -91 0 -6 -4 -12 -8 -14 -4 -1 -33 -39 -63 -83 -29 -44
-58 -85 -64 -91 -5 -7 -39 -55 -75 -109 -36 -53 -75 -108 -87 -123 -13 -15
-23 -31 -23 -35 0 -5 -6 -15 -12 -22 -15 -17 -29 -36 -43 -57 -11 -17 -8 -13
-152 -221 -57 -82 -103 -152 -103 -157 0 -4 -4 -10 -9 -12 -5 -1 -37 -46 -72
-98 -35 -52 -72 -104 -81 -114 -10 -11 -18 -25 -18 -32 0 -7 -3 -14 -7 -16
-10 -4 -63 -75 -63 -83 0 -4 -6 -13 -12 -20 -30 -33 -38 -45 -38 -55 0 -5 -4
-10 -10 -10 -5 0 -10 -6 -10 -13 0 -8 -9 -22 -20 -32 -11 -10 -20 -24 -20 -32
0 -7 -4 -13 -10 -13 -5 0 -17 -16 -26 -35 -9 -19 -21 -35 -26 -35 -5 0 -7 -4
-4 -8 5 -8 200 -11 808 -15 l267 -2 22 -50 c12 -27 35 -78 50 -113 15 -34 28
-65 29 -67 0 -3 10 -24 20 -47 11 -24 20 -49 20 -55 0 -7 4 -13 9 -13 5 0 12
-12 16 -27 3 -15 17 -50 29 -78 13 -27 42 -95 66 -149 23 -54 46 -106 51 -115
7 -13 28 -63 34 -81 1 -3 13 -31 28 -64 15 -32 27 -60 27 -62 0 -2 13 -33 30
-68 16 -36 41 -94 56 -128 14 -35 39 -91 55 -126 16 -35 29 -66 29 -68 0 -3
12 -31 26 -62 15 -31 27 -63 27 -69 0 -7 4 -13 8 -13 5 0 12 -16 20 -50 0 -3
5 -11 11 -17 6 -7 7 -13 2 -13 -5 0 -3 -4 4 -9 7 -4 14 -14 15 -22 2 -8 6 -20
10 -26 5 -7 5 -13 1 -13 -4 0 0 -8 8 -17 8 -10 30 -56 49 -103 19 -47 37 -87
42 -88 4 -2 7 -10 7 -18 0 -8 5 -23 10 -34 6 -11 15 -30 21 -41 6 -12 12 -30
14 -40 2 -10 24 -50 49 -89 25 -39 46 -75 46 -80 0 -6 4 -10 8 -10 5 0 24 -21
43 -48 48 -68 226 -242 247 -242 3 0 19 -10 36 -22 44 -33 196 -104 196 -93 0
3 12 0 28 -6 42 -17 107 -23 227 -23 117 1 164 6 208 23 15 6 27 9 27 6 0 -2
32 7 71 20 87 30 269 115 269 127 0 4 5 8 11 8 6 0 31 14 56 30 24 17 46 30
49 30 3 0 11 6 18 12 8 7 24 20 37 28 12 8 39 30 59 48 21 17 40 32 44 32 3 0
19 14 34 30 16 17 32 30 34 30 3 0 42 36 86 80 44 44 78 80 75 80 -2 0 7 11
21 24 15 13 26 28 26 35 0 6 4 11 8 11 5 0 14 10 19 22 6 13 18 32 27 43 9 11
120 171 247 355 126 184 234 337 240 338 5 2 9 8 9 12 0 10 58 98 77 118 7 7
13 17 13 21 0 6 55 85 87 126 5 6 24 34 42 63 19 30 39 59 45 65 6 7 24 32 41
57 16 25 32 47 35 50 4 4 74 106 115 168 6 8 57 83 115 166 58 83 118 172 135
196 16 25 32 47 35 50 3 3 19 26 35 52 17 27 33 48 38 48 4 0 7 6 7 14 0 8 3
16 8 18 4 2 27 32 51 68 112 165 176 255 183 258 4 2 8 8 8 13 0 9 56 93 82
123 10 11 20 28 24 38 3 10 10 18 15 18 5 0 9 4 9 10 0 11 71 113 82 118 5 2
8 8 8 13 0 9 97 151 124 182 9 9 15 18 14 18 -6 3 -356 9 -700 12 -355 4 -388
7 -388 38 0 5 -11 32 -24 61 -58 128 -77 174 -79 191 -1 9 -4 17 -8 17 -4 0
-14 19 -24 43 -16 40 -24 59 -65 152 -53 117 -60 134 -60 139 0 2 -15 37 -34
78 -19 40 -57 127 -86 193 -28 66 -60 138 -70 160 -10 22 -32 74 -50 115 -18
41 -40 93 -50 115 -10 22 -41 94 -70 160 -29 66 -61 139 -71 162 -19 42 -41
93 -44 103 -1 3 -12 27 -24 55 -12 27 -29 66 -37 85 -42 98 -106 202 -190 310
-163 210 -370 345 -580 379 -58 9 -238 13 -246 6z m-225 -2227 c-2 -5 0 -8 4
-8 9 0 59 -111 56 -122 -2 -5 2 -8 7 -8 6 0 10 -5 10 -11 0 -6 10 -32 23 -58
13 -25 25 -50 27 -56 8 -26 32 -82 41 -98 18 -33 109 -246 109 -256 0 -6 4
-11 8 -11 4 0 14 -17 22 -37 7 -21 26 -67 42 -103 16 -36 33 -74 38 -85 5 -11
27 -59 49 -108 23 -48 41 -92 41 -98 0 -6 9 -24 21 -40 11 -16 17 -29 13 -29
-3 0 -1 -7 6 -15 6 -8 9 -19 5 -25 -3 -5 -2 -10 2 -10 5 0 21 -27 36 -60 25
-54 31 -60 57 -60 17 0 30 -2 30 -4 0 -10 -54 -112 -62 -117 -6 -3 -9 -9 -8
-13 1 -4 -19 -49 -44 -101 -26 -52 -46 -98 -45 -101 0 -4 -3 -10 -8 -13 -4 -3
-21 -33 -37 -65 l-29 -59 -28 59 c-14 32 -25 62 -22 67 2 4 -1 7 -6 7 -6 0
-11 5 -11 10 0 6 -14 41 -32 78 -18 37 -33 69 -33 72 -1 5 -10 24 -51 115 -12
28 -23 55 -24 60 -1 6 -8 21 -15 35 -23 42 -82 174 -90 200 -4 14 -11 27 -14
30 -9 7 -61 132 -61 148 0 6 -3 12 -7 12 -5 0 -17 21 -27 48 -11 26 -28 65
-37 87 -10 22 -18 44 -18 49 1 5 -3 12 -8 15 -5 3 -22 38 -38 76 -16 39 -53
121 -82 183 -43 93 -56 112 -70 108 -49 -15 -41 11 75 243 l117 234 36 -79
c20 -43 35 -82 32 -86z"/>
</g>
</svg>
