<svg xmlns="http://www.w3.org/2000/svg" aria-hidden="true" style="position: absolute; width: 0; height: 0; overflow: hidden;">
  <defs>

    <symbol id="icon-logo-tab" viewBox="0 0 32 32">
      <path d="M28.128 18.563l-6.747-15.458-1.472-1.019-1.725-0.549-2.334-0.628-2.739 1.177-1.827 1.019 6.9 15.458h9.944z"></path>
      <path d="M3.912 13.396l6.747 15.491 1.472 1.022 1.725 0.551 2.334 0.63 2.74-1.179 1.826-1.024-6.9-15.493h-9.944z"></path>
      <path d="M10.924 3.309l-10.476 15.141 10.476 0.113 7.572-15.254c0.532-1.561 2.196-0.65 2.961 0-3.271-5.992-8.386-2.498-10.533 0zM21.076 28.691l10.476-15.141-10.476-0.113-7.572 15.254c-0.532 1.561-2.196 0.652-2.961 0 3.271 5.992 8.386 2.498 10.533 0z"></path>
    </symbol>

    <symbol id="icon-logo-mob" viewBox="0 0 32 32">
      <path d="M28.13 18.565l-6.747-15.458-1.474-1.019-1.726-0.549-2.331-0.629-2.743 1.177-1.824 1.019 6.898 15.458h9.943z"></path>
      <path d="M3.913 13.394l6.747 15.495 1.472 1.022 1.723 0.549 2.334 0.631 2.741-1.179 1.826-1.022-6.901-15.495h-9.943z"></path>
      <path d="M10.926 3.31l-10.48 15.141 10.475 0.114 7.573-15.255c0.533-1.561 2.194-0.651 2.96 0-3.269-5.993-8.384-2.498-10.533 0zM21.074 28.69l10.478-15.141-10.475-0.114-7.573 15.255c-0.533 1.561-2.194 0.651-2.96 0 3.269 5.993 8.384 2.498 10.533 0z"></path>
    </symbol>

    <symbol id="icon-gg_menu-left" viewBox="0 0 32 32">
      <path d="M2.667 7.993c0-0.733 0.595-1.327 1.327-1.327h10.68c0.733 0 1.327 0.594 1.327 1.327s-0.594 1.327-1.327 1.327h-10.68c-0.733 0-1.327-0.594-1.327-1.327v0zM2.667 16c0-0.733 0.595-1.327 1.327-1.327h24.013c0.733 0 1.327 0.594 1.327 1.327s-0.594 1.327-1.327 1.327h-24.013c-0.733 0-1.327-0.594-1.327-1.327v0zM3.993 22.68c-0.733 0-1.327 0.594-1.327 1.327s0.594 1.327 1.327 1.327h16.013c0.733 0 1.327-0.594 1.327-1.327s-0.594-1.327-1.327-1.327h-16.013z"></path>
    </symbol>

    <symbol id="icon-close-modal" viewBox="0 0 32 32">
      <path d="M32 3.223 28.777 0 16 12.777 3.223 0 0 3.223 12.777 16 0 28.777 3.223 32 16 19.223 28.777 32 32 28.777 19.223 16 32 3.223z"/>
    </symbol>

    <symbol id="icon-next" viewBox="0 0 20 20">
      <path d="M12.95 10.707l0.707-0.707-5.657-5.657-1.414 1.414 4.242 4.243-4.242 4.243 1.414 1.414 4.95-4.95z"></path>
    </symbol>

    <symbol id="icon-prev" viewBox="0 0 20 20">
      <path d="M7.050 9.293l-0.707 0.707 5.657 5.657 1.414-1.414-4.242-4.243 4.242-4.243-1.414-1.414z"></path>
    </symbol>

    <symbol id="heart" viewBox="0 0 32 32">
      <path fill="none" stroke="#fff" style="stroke: rgba(20, 20, 20, 0.1)" stroke-linejoin="round" stroke-linecap="round" stroke-miterlimit="4" stroke-width="2.6667" d="M27.787 6.147c-0.681-0.681-1.49-1.222-2.379-1.591s-1.844-0.559-2.807-0.559-1.917 0.19-2.807 0.559c-0.89 0.369-1.699 0.909-2.38 1.591l-1.413 1.413-1.413-1.413c-1.376-1.376-3.241-2.148-5.187-2.148s-3.811 0.773-5.187 2.148c-1.376 1.376-2.148 3.241-2.148 5.187s0.773 3.811 2.148 5.187l11.787 11.787 11.787-11.787c0.681-0.681 1.222-1.49 1.591-2.38s0.559-1.844 0.559-2.807-0.19-1.917-0.559-2.807c-0.369-0.89-0.909-1.699-1.591-2.38v0z"></path>
    </symbol>  

    <symbol id="icon-footer-facebook" viewBox="0 0 32 32">
      <path d="M19.52 4.64c0.24 0 0.48 0 0.96 0v3.6c-0.24 0-0.72 0-1.2 0s-0.96 0-1.2 0.24c-0.24 0.24-0.24 0.48-0.24 1.040 0 0.48 0 0.8 0 1.28h2.64v3.040h-2.64v13.2h-4.080v-13.28h-2.16v-3.040h2.16v-1.040c0-1.76 0.24-3.040 0.72-3.6 0.72-1.040 2.16-1.52 4.32-1.52 0.24 0.080 0.48 0.080 0.72 0.080z"></path>
    </symbol>

    <symbol id="icon-footer-instagram" viewBox="0 0 32 32">
      <path d="M28.718 10.756c-0.016-1.074-0.215-2.14-0.596-3.145-0.667-1.716-2.024-3.073-3.743-3.737-0.994-0.373-2.044-0.573-3.108-0.596-1.368-0.061-1.801-0.078-5.273-0.078s-3.916 0-5.274 0.078c-1.062 0.023-2.113 0.223-3.106 0.596-1.719 0.664-3.078 2.021-3.743 3.737-0.374 0.992-0.576 2.041-0.596 3.101-0.061 1.367-0.080 1.8-0.080 5.265s0 3.909 0.080 5.265c0.021 1.062 0.222 2.109 0.596 3.104 0.667 1.714 2.024 3.071 3.744 3.735 0.989 0.386 2.040 0.605 3.106 0.639 1.369 0.061 1.803 0.080 5.274 0.080s3.916 0 5.274-0.080c1.062-0.021 2.112-0.221 3.108-0.595 1.719-0.666 3.076-2.022 3.743-3.737 0.374-0.994 0.574-2.041 0.596-3.104 0.061-1.365 0.080-1.798 0.080-5.265-0.003-3.466-0.003-3.906-0.082-5.264zM15.99 22.531c-3.631 0-6.572-2.936-6.572-6.561s2.941-6.561 6.572-6.561c3.628 0 6.572 2.936 6.572 6.561s-2.944 6.561-6.572 6.561zM22.824 10.696c-0.849 0-1.532-0.684-1.532-1.53s0.684-1.53 1.532-1.53c0.846 0 1.531 0.684 1.531 1.53s-0.685 1.53-1.531 1.53z"></path>
      <path d="M15.992 19.976c2.211 0 4.004-1.793 4.004-4.004s-1.793-4.004-4.004-4.004c-2.211 0-4.004 1.793-4.004 4.004s1.793 4.004 4.004 4.004z"></path>
    </symbol>

    <symbol id="icon-footer-youtube" viewBox="0 0 32 32">
      <path d="M24.24 6c-1.36-0.080-4.16-0.16-8.4-0.16h-0.56c-4.080 0-6.8 0.080-8.16 0.24-1.84 0.16-3.12 0.64-3.84 1.28-0.64 0.56-1.12 1.6-1.28 2.96-0.080 0.88-0.16 2.72-0.16 5.52v0.4c0 2.64 0.080 4.48 0.24 5.36 0.24 1.28 0.64 2.24 1.44 2.8 0.8 0.64 2.16 1.040 4.080 1.2 1.36 0.080 4.16 0.16 8.4 0.16h0.56c4.080 0 6.8-0.080 8.16-0.24 1.84-0.16 3.12-0.64 3.84-1.28 0.64-0.56 1.12-1.6 1.28-2.96 0.080-0.88 0.16-2.72 0.16-5.52v-0.4c0-2.64-0.080-4.48-0.24-5.36-0.24-1.28-0.64-2.24-1.44-2.8-0.8-0.64-2.16-1.040-4.080-1.2zM21.12 15.84l-8.8 5.28v-10.56l8.8 5.28z"></path>
    </symbol>

  </defs>
</svg>
