<svg width="50" height="50" viewBox="0 0 50 50" fill="none" xmlns="http://www.w3.org/2000/svg">
<g clip-path="url(#clip0_74_654)">
<g filter="url(#filter0_d_74_654)">
<path d="M43.9513 29.0059L33.4077 4.85455L31.1088 3.26081L28.4134 2.40264L24.7668 1.42188L20.486 3.26081L17.6321 4.85455L28.4134 29.0059H43.9513Z" fill="url(#paint0_linear_74_654)"/>
</g>
<g filter="url(#filter1_d_74_654)">
<path d="M6.1132 20.9295L16.6567 45.1374L18.9557 46.7349L21.651 47.5951L25.2977 48.5781L29.5785 46.7349L32.4324 45.1374L21.651 20.9295L6.1132 20.9295Z" fill="url(#paint1_linear_74_654)"/>
</g>
<path d="M17.0682 5.17001L0.699824 28.8298L17.0682 29.0052L28.9005 5.17001C29.7312 2.73162 32.3306 4.15401 33.5264 5.17001C28.4158 -4.19337 20.4248 1.2686 17.0682 5.17001Z" fill="white"/>
<path d="M32.9318 44.83L49.3002 21.1702L32.9318 20.9948L21.0995 44.83C20.2688 47.2684 17.6694 45.846 16.4736 44.83C21.5842 54.1934 29.5752 48.7314 32.9318 44.83Z" fill="white"/>
</g>
<defs>
<filter id="filter0_d_74_654" x="-2.36792" y="-14.5781" width="66.3191" height="67.584" filterUnits="userSpaceOnUse" color-interpolation-filters="sRGB">
<feFlood flood-opacity="0" result="BackgroundImageFix"/>
<feColorMatrix in="SourceAlpha" type="matrix" values="0 0 0 0 0 0 0 0 0 0 0 0 0 0 0 0 0 0 127 0" result="hardAlpha"/>
<feOffset dy="4"/>
<feGaussianBlur stdDeviation="10"/>
<feComposite in2="hardAlpha" operator="out"/>
<feColorMatrix type="matrix" values="0 0 0 0 0 0 0 0 0 0 0 0 0 0 0 0 0 0 0.25 0"/>
<feBlend mode="normal" in2="BackgroundImageFix" result="effect1_dropShadow_74_654"/>
<feBlend mode="normal" in="SourceGraphic" in2="effect1_dropShadow_74_654" result="shape"/>
</filter>
<filter id="filter1_d_74_654" x="-13.8867" y="4.92969" width="66.3191" height="67.6484" filterUnits="userSpaceOnUse" color-interpolation-filters="sRGB">
<feFlood flood-opacity="0" result="BackgroundImageFix"/>
<feColorMatrix in="SourceAlpha" type="matrix" values="0 0 0 0 0 0 0 0 0 0 0 0 0 0 0 0 0 0 127 0" result="hardAlpha"/>
<feOffset dy="4"/>
<feGaussianBlur stdDeviation="10"/>
<feComposite in2="hardAlpha" operator="out"/>
<feColorMatrix type="matrix" values="0 0 0 0 0 0 0 0 0 0 0 0 0 0 0 0 0 0 0.25 0"/>
<feBlend mode="normal" in2="BackgroundImageFix" result="effect1_dropShadow_74_654"/>
<feBlend mode="normal" in="SourceGraphic" in2="effect1_dropShadow_74_654" result="shape"/>
</filter>
<linearGradient id="paint0_linear_74_654" x1="41.2245" y1="29.0059" x2="28.7204" y2="5.61312" gradientUnits="userSpaceOnUse">
<stop/>
<stop offset="0.494792" stop-color="white"/>
<stop offset="1" stop-color="white"/>
</linearGradient>
<linearGradient id="paint1_linear_74_654" x1="8.83996" y1="20.9295" x2="21.3897" y2="44.3526" gradientUnits="userSpaceOnUse">
<stop stop-color="#0C0C0C"/>
<stop offset="0.494792" stop-color="white"/>
<stop offset="1" stop-color="white"/>
</linearGradient>
<clipPath id="clip0_74_654">
<rect width="50" height="50" fill="white"/>
</clipPath>
</defs>
</svg>
