<svg aria-hidden="true" style="position: absolute; width: 0; height: 0; overflow: hidden;" version="1.1" xmlns="http://www.w3.org/2000/svg" xmlns:xlink="http://www.w3.org/1999/xlink">
<defs>
<symbol id="icon-logo-tab" viewBox="0 0 32 32">
<path d="M28.128 18.563l-6.747-15.458-1.472-1.019-1.725-0.549-2.334-0.628-2.739 1.177-1.827 1.019 6.9 15.458h9.944z"></path>
<path d="M3.912 13.396l6.747 15.491 1.472 1.022 1.725 0.551 2.334 0.63 2.74-1.179 1.826-1.024-6.9-15.493h-9.944z"></path>
<path d="M10.924 3.309l-10.476 15.141 10.476 0.113 7.572-15.254c0.532-1.561 2.196-0.65 2.961 0-3.271-5.992-8.386-2.498-10.533 0zM21.076 28.691l10.476-15.141-10.476-0.113-7.572 15.254c-0.532 1.561-2.196 0.652-2.961 0 3.271 5.992 8.386 2.498 10.533 0z"></path>
</symbol>
<symbol id="icon-logo-mob" viewBox="0 0 32 32">
<path d="M28.13 18.565l-6.747-15.458-1.474-1.019-1.726-0.549-2.331-0.629-2.743 1.177-1.824 1.019 6.898 15.458h9.943z"></path>
<path d="M3.913 13.394l6.747 15.495 1.472 1.022 1.723 0.549 2.334 0.631 2.741-1.179 1.826-1.022-6.901-15.495h-9.943z"></path>
<path d="M10.926 3.31l-10.48 15.141 10.475 0.114 7.573-15.255c0.533-1.561 2.194-0.651 2.96 0-3.269-5.993-8.384-2.498-10.533 0zM21.074 28.69l10.478-15.141-10.475-0.114-7.573 15.255c-0.533 1.561-2.194 0.651-2.96 0 3.269 5.993 8.384 2.498 10.533 0z"></path>
</symbol>
</defs>
</svg>
