<svg xmlns="http://www.w3.org/2000/svg" aria-hidden="true" style="position: absolute; width: 0; height: 0; overflow: hidden;">
  <defs>

    <symbol id="icon-logo-tab" viewBox="0 0 32 32">
      <path d="M28.128 18.563l-6.747-15.458-1.472-1.019-1.725-0.549-2.334-0.628-2.739 1.177-1.827 1.019 6.9 15.458h9.944z"></path>
      <path d="M3.912 13.396l6.747 15.491 1.472 1.022 1.725 0.551 2.334 0.63 2.74-1.179 1.826-1.024-6.9-15.493h-9.944z"></path>
      <path d="M10.924 3.309l-10.476 15.141 10.476 0.113 7.572-15.254c0.532-1.561 2.196-0.65 2.961 0-3.271-5.992-8.386-2.498-10.533 0zM21.076 28.691l10.476-15.141-10.476-0.113-7.572 15.254c-0.532 1.561-2.196 0.652-2.961 0 3.271 5.992 8.386 2.498 10.533 0z"></path>
    </symbol>
    <symbol id="icon-logo-mob" viewBox="0 0 32 32">
      <path d="M28.13 18.565l-6.747-15.458-1.474-1.019-1.726-0.549-2.331-0.629-2.743 1.177-1.824 1.019 6.898 15.458h9.943z"></path>
      <path d="M3.913 13.394l6.747 15.495 1.472 1.022 1.723 0.549 2.334 0.631 2.741-1.179 1.826-1.022-6.901-15.495h-9.943z"></path>
      <path d="M10.926 3.31l-10.48 15.141 10.475 0.114 7.573-15.255c0.533-1.561 2.194-0.651 2.96 0-3.269-5.993-8.384-2.498-10.533 0zM21.074 28.69l10.478-15.141-10.475-0.114-7.573 15.255c-0.533 1.561-2.194 0.651-2.96 0 3.269 5.993 8.384 2.498 10.533 0z"></path>
    </symbol>
    <symbol id="icon-gg_menu-left" viewBox="0 0 32 32">
      <path d="M2.667 7.993c0-0.733 0.595-1.327 1.327-1.327h10.68c0.733 0 1.327 0.594 1.327 1.327s-0.594 1.327-1.327 1.327h-10.68c-0.733 0-1.327-0.594-1.327-1.327v0zM2.667 16c0-0.733 0.595-1.327 1.327-1.327h24.013c0.733 0 1.327 0.594 1.327 1.327s-0.594 1.327-1.327 1.327h-24.013c-0.733 0-1.327-0.594-1.327-1.327v0zM3.993 22.68c-0.733 0-1.327 0.594-1.327 1.327s0.594 1.327 1.327 1.327h16.013c0.733 0 1.327-0.594 1.327-1.327s-0.594-1.327-1.327-1.327h-16.013z"></path>
    </symbol>
    <symbol id="icon-close-modal" viewBox="0 0 32 32">
      <path d="M32 3.223 28.777 0 16 12.777 3.223 0 0 3.223 12.777 16 0 28.777 3.223 32 16 19.223 28.777 32 32 28.777 19.223 16 32 3.223z"/>
    </symbol>


















    <symbol id="icon-next" viewBox="0 0 20 20">
      <path d="M12.95 10.707l0.707-0.707-5.657-5.657-1.414 1.414 4.242 4.243-4.242 4.243 1.414 1.414 4.95-4.95z"></path>
    </symbol>
    <symbol id="icon-prev" viewBox="0 0 20 20">
      <path d="M7.050 9.293l-0.707 0.707 5.657 5.657 1.414-1.414-4.242-4.243 4.242-4.243-1.414-1.414z"></path>
    </symbol>
    <symbol id="heart" viewBox="0 0 32 32">
      <path fill="none" stroke="#fff" style="stroke: rgba(20, 20, 20, 0.1)" stroke-linejoin="round" stroke-linecap="round" stroke-miterlimit="4" stroke-width="2.6667" d="M27.787 6.147c-0.681-0.681-1.49-1.222-2.379-1.591s-1.844-0.559-2.807-0.559-1.917 0.19-2.807 0.559c-0.89 0.369-1.699 0.909-2.38 1.591l-1.413 1.413-1.413-1.413c-1.376-1.376-3.241-2.148-5.187-2.148s-3.811 0.773-5.187 2.148c-1.376 1.376-2.148 3.241-2.148 5.187s0.773 3.811 2.148 5.187l11.787 11.787 11.787-11.787c0.681-0.681 1.222-1.49 1.591-2.38s0.559-1.844 0.559-2.807-0.19-1.917-0.559-2.807c-0.369-0.89-0.909-1.699-1.591-2.38v0z"></path>
    </symbol>     
  </defs>
</svg>
