<?xml version="1.0" standalone="no"?>
<!DOCTYPE svg PUBLIC "-//W3C//DTD SVG 20010904//EN"
 "http://www.w3.org/TR/2001/REC-SVG-20010904/DTD/svg10.dtd">
<svg version="1.0" xmlns="http://www.w3.org/2000/svg"
 width="176.000000pt" height="176.000000pt" viewBox="0 0 176.000000 176.000000"
 preserveAspectRatio="xMidYMid meet">
<metadata>
Created by potrace 1.14, written by Peter Selinger 2001-2017
</metadata>
<g transform="translate(0.000000,176.000000) scale(0.100000,-0.100000)"
fill="#000000" stroke="none">
<path d="M811 1429 c-66 -38 -76 -51 -209 -242 -226 -328 -212 -304 -183 -305
56 0 62 -2 55 -14 -4 -7 1 -6 10 2 10 11 29 15 52 12 32 -4 37 -9 64 -69 17
-36 27 -69 24 -74 -3 -5 -1 -9 4 -9 5 0 26 -39 47 -87 43 -103 74 -147 117
-169 29 -15 38 -15 140 -2 9 1 15 5 13 8 -1 3 14 15 34 28 20 13 63 61 96 107
32 46 63 81 68 78 6 -3 7 -1 3 5 -6 10 79 143 96 150 4 2 8 8 8 13 0 8 65 105
80 119 13 13 29 50 22 53 -4 3 -41 5 -82 5 -58 1 -77 4 -87 18 -7 9 -10 21 -7
25 3 5 2 9 -3 9 -4 0 -16 21 -27 48 -19 49 -47 112 -92 207 -32 70 -79 107
-142 112 -39 3 -56 -1 -101 -28z m49 -356 c8 -21 14 -44 13 -51 0 -7 1 -11 5
-8 7 8 32 -42 32 -66 0 -10 5 -16 10 -13 9 6 14 -10 13 -42 -1 -7 3 -10 8 -7
13 8 11 -18 -3 -49 -20 -41 -33 -32 -31 21 1 7 -1 11 -5 8 -8 -9 -33 46 -27
61 2 8 1 12 -3 9 -5 -3 -21 22 -35 56 -24 54 -26 64 -15 89 7 16 15 29 18 29
3 0 12 -17 20 -37z"/>
</g>
</svg>
