<?xml version="1.0" standalone="no"?>
<!DOCTYPE svg PUBLIC "-//W3C//DTD SVG 20010904//EN"
 "http://www.w3.org/TR/2001/REC-SVG-20010904/DTD/svg10.dtd">
<svg version="1.0" xmlns="http://www.w3.org/2000/svg"
 width="700.000000pt" height="700.000000pt" viewBox="0 0 700.000000 700.000000"
 preserveAspectRatio="xMidYMid meet">
<metadata>
Created by potrace 1.14, written by Peter Selinger 2001-2017
</metadata>
<g transform="translate(0.000000,700.000000) scale(0.100000,-0.100000)"
fill="#000000" stroke="none">
<path d="M3579 6996 c-2 -2 -24 -6 -49 -10 -253 -33 -578 -195 -850 -424 -178
-151 -279 -267 -475 -552 -105 -151 -216 -313 -249 -360 -32 -47 -97 -141
-144 -210 -47 -69 -88 -127 -91 -130 -4 -3 -33 -45 -66 -95 -33 -49 -62 -92
-65 -95 -3 -3 -14 -18 -24 -35 -11 -16 -23 -34 -28 -40 -4 -5 -23 -32 -42 -60
-60 -87 -185 -268 -217 -315 -38 -54 -66 -95 -422 -610 -154 -223 -380 -549
-502 -725 -122 -176 -229 -331 -238 -346 l-17 -25 253 -3 c138 -1 374 -4 522
-6 149 -2 315 -4 370 -4 l100 -1 39 -93 c22 -50 57 -129 78 -175 21 -46 38
-85 38 -88 0 -2 30 -73 66 -157 64 -146 79 -181 138 -310 14 -32 26 -60 26
-62 0 -3 10 -27 21 -53 12 -26 27 -60 34 -77 7 -16 23 -52 34 -78 12 -26 19
-53 15 -59 -4 -6 -3 -8 3 -5 6 4 16 -8 23 -26 15 -38 55 -131 99 -230 12 -26
19 -53 15 -59 -4 -6 -3 -8 3 -5 5 3 20 -20 33 -51 13 -31 38 -90 57 -130 18
-41 33 -75 33 -78 0 -3 63 -148 100 -229 5 -11 30 -69 56 -130 25 -60 50 -115
55 -121 5 -6 6 -14 3 -17 -3 -3 3 -19 15 -35 12 -17 21 -33 21 -36 0 -11 119
-182 140 -201 11 -10 20 -22 20 -27 0 -9 155 -166 201 -204 14 -11 39 -29 57
-39 17 -10 29 -22 27 -25 -2 -4 1 -7 8 -7 7 0 39 -16 72 -34 33 -19 80 -41
105 -49 25 -7 51 -18 58 -23 6 -5 12 -7 12 -3 0 3 10 2 23 -3 80 -31 338 -34
457 -7 182 41 389 129 530 225 36 24 71 44 78 44 6 0 12 3 12 7 0 7 107 90
115 90 2 0 17 12 33 27 17 16 53 48 82 73 42 36 160 153 215 214 6 6 42 56 79
111 38 55 73 101 78 103 4 2 8 9 8 15 1 19 56 87 65 79 5 -4 5 -1 1 6 -4 7 5
28 22 50 15 20 50 70 77 110 26 39 52 72 58 72 6 0 8 3 4 6 -3 4 11 29 32 58
21 28 43 61 49 73 7 12 18 27 24 35 7 7 45 60 84 118 39 58 86 125 103 150 17
25 52 75 77 112 26 37 51 65 57 61 6 -3 7 -1 3 5 -3 6 20 48 52 94 32 46 92
133 133 193 128 187 193 280 201 283 5 2 8 9 8 15 0 7 11 24 25 39 14 15 25
29 25 32 0 3 14 25 30 48 17 24 50 72 74 108 24 36 74 108 110 160 37 52 83
120 103 150 21 30 40 57 43 60 3 3 25 34 49 70 72 106 175 255 181 260 3 3 31
43 62 90 57 85 107 159 267 390 48 69 94 137 103 151 l17 27 -102 0 c-56 0
-331 2 -611 6 -508 6 -536 9 -536 41 0 7 -12 38 -26 69 -14 31 -22 61 -18 67
4 7 3 9 -3 6 -6 -4 -39 60 -78 151 -37 86 -75 175 -85 197 -33 72 -127 289
-140 325 -7 19 -17 40 -20 45 -4 6 -29 60 -55 120 -69 162 -70 164 -104 238
-17 37 -31 69 -31 72 0 3 -10 27 -21 53 -53 115 -69 152 -99 222 -18 41 -41
95 -52 120 -69 158 -84 191 -110 248 -15 34 -28 64 -28 67 0 5 -35 82 -79 175
-99 207 -306 455 -473 568 -166 112 -319 162 -519 168 -69 3 -127 3 -130 0z
m-269 -2559 c22 -48 40 -94 40 -102 0 -8 3 -15 8 -15 4 0 16 -21 26 -48 22
-54 40 -95 90 -206 20 -43 33 -83 29 -89 -3 -6 -1 -7 5 -3 7 4 12 3 12 -3 0
-6 12 -36 26 -68 15 -32 37 -80 49 -108 13 -27 30 -66 38 -85 16 -38 60 -135
84 -187 8 -18 11 -37 7 -44 -4 -7 -3 -9 3 -6 5 3 18 -13 28 -36 51 -116 88
-199 130 -290 14 -32 23 -63 19 -69 -4 -6 -3 -8 2 -5 6 3 23 -24 39 -61 15
-37 30 -69 32 -72 2 -2 19 -3 38 -2 19 2 35 1 35 -2 0 -10 -95 -191 -103 -197
-5 -3 -8 -8 -6 -10 3 -6 -13 -53 -20 -59 -4 -3 -26 -45 -50 -95 -24 -49 -47
-97 -52 -105 -5 -8 -14 -27 -20 -42 -6 -16 -14 -28 -18 -28 -3 0 -12 12 -18
28 -56 127 -80 181 -129 291 -21 44 -23 56 -12 70 11 14 11 14 -2 4 -14 -10
-20 -2 -45 55 -38 89 -98 224 -142 322 -78 171 -103 235 -99 247 3 8 1 11 -4
8 -11 -7 -61 97 -63 132 -1 11 -5 19 -8 17 -4 -2 -12 11 -20 29 -7 17 -23 57
-37 87 -13 30 -30 69 -37 85 -8 17 -35 75 -60 130 -26 55 -48 108 -50 119 -7
32 -26 46 -65 46 l-38 0 16 34 c9 19 20 32 25 29 6 -3 7 -1 3 5 -5 9 123 281
185 392 11 19 25 48 31 64 l11 30 23 -50 c13 -27 41 -88 64 -137z"/>
<path d="M3186 4282 c-3 -5 1 -9 9 -9 8 0 12 4 9 9 -3 4 -7 8 -9 8 -2 0 -6 -4
-9 -8z"/>
<path d="M3789 3083 c-13 -16 -12 -17 4 -4 9 7 17 15 17 17 0 8 -8 3 -21 -13z"/>
<path d="M3673 2875 c0 -8 4 -12 9 -9 5 3 6 10 3 15 -9 13 -12 11 -12 -6z"/>
</g>
</svg>
